<svg fill="currentColor" version="1.1" xmlns="http://www.w3.org/2000/svg" xmlns:xlink="http://www.w3.org/1999/xlink" x="0px" y="0px" viewBox="0 0 58.22 56.59" xml:space="preserve">
    <defs><style>.cls-1,.cls-2{fill:none;}.cls-1{stroke:#c1272d;stroke-linecap:round;stroke-linejoin:round;}.cls-2{stroke:#c52228;stroke-miterlimit:10;}</style></defs>
<title>Shared Hosting Servers Icon</title>
<g>
        <polygon class="cls-1" points="29.29 56.09 0.57 45.18 0.57 9.24 29.29 18.11 29.29 56.09"></polygon>
        <polygon class="cls-1" points="57.42 43.24 29.29 56.09 29.29 18.11 57.73 9.3 57.42 43.24"></polygon>
        <polygon class="cls-1" points="57.73 9.3 29.29 18.11 0.57 9.24 29.76 0.5 57.73 9.3"></polygon>
        <line class="cls-1" x1="29.28" y1="37.38" x2="0.5" y2="27.38"></line>
        <line class="cls-1" x1="15.21" y1="50.94" x2="15.1" y2="13.78"></line>
        <line class="cls-1" x1="29.28" y1="37.38" x2="57.64" y2="26.32"></line>
        <line class="cls-1" x1="44.54" y1="49.3" x2="44.28" y2="13.47"></line>
        <line class="cls-1" x1="44.28" y1="13.47" x2="15.76" y2="4.77"></line>
        <line class="cls-1" x1="15.1" y1="13.78" x2="42.07" y2="4.56"></line>
        <circle class="cls-2" cx="24.3" cy="21.51" r="1.12"></circle>
        <circle fill="currentColor" cx="20.89" cy="20.87" r="0.88"></circle>
</g>
</svg>