<svg width="535" height="530" viewBox="0 0 535 530" fill="none" xmlns="http://www.w3.org/2000/svg">
<g id="platform-i-wordpress">
<g id="Group 82">
<g id="Group 81">
<g id="new i red border v2">
<g id="Vector">
<mask id="path-1-outside-1_253_42" maskUnits="userSpaceOnUse" x="0" y="0" width="204" height="204" fill="black">
<rect fill="white" width="204" height="204"/>
<path d="M198.02 101.51C198.02 147.02 166.521 185.172 124.134 195.354C116.878 197.097 109.302 198.02 101.51 198.02C84.1273 198.02 67.8174 193.425 53.7307 185.382C24.621 168.764 5 137.429 5 101.51C5 50.8245 44.0729 9.26389 93.7415 5.30807C96.3042 5.1036 98.8955 5 101.51 5C124.356 5 145.348 12.9389 161.878 26.2077C183.913 43.8957 198.02 71.0562 198.02 101.51Z"/>
</mask>
<path d="M198.02 101.51C198.02 147.02 166.521 185.172 124.134 195.354C116.878 197.097 109.302 198.02 101.51 198.02C84.1273 198.02 67.8174 193.425 53.7307 185.382C24.621 168.764 5 137.429 5 101.51C5 50.8245 44.0729 9.26389 93.7415 5.30807C96.3042 5.1036 98.8955 5 101.51 5C124.356 5 145.348 12.9389 161.878 26.2077C183.913 43.8957 198.02 71.0562 198.02 101.51Z" fill="#F7F7F7"/>
<path d="M198.02 101.51C198.02 147.02 166.521 185.172 124.134 195.354C116.878 197.097 109.302 198.02 101.51 198.02C84.1273 198.02 67.8174 193.425 53.7307 185.382C24.621 168.764 5 137.429 5 101.51C5 50.8245 44.0729 9.26389 93.7415 5.30807C96.3042 5.1036 98.8955 5 101.51 5C124.356 5 145.348 12.9389 161.878 26.2077C183.913 43.8957 198.02 71.0562 198.02 101.51Z" stroke="#C52228" stroke-width="10" mask="url(#path-1-outside-1_253_42)"/>
</g>
<g id="Mask group">
<mask id="mask0_253_42" style="mask-type:alpha" maskUnits="userSpaceOnUse" x="5" y="5" width="194" height="194">
<g id="Group">
<g id="Group 84">
<path id="Vector_2" d="M198.02 101.51C198.02 147.02 166.521 185.172 124.134 195.354C116.878 197.097 109.302 198.02 101.51 198.02C84.1273 198.02 67.8174 193.425 53.7307 185.382C24.621 168.764 5 137.429 5 101.51C5 50.8245 44.0729 9.26389 93.7415 5.30807C96.3042 5.1036 98.8955 5 101.51 5C124.356 5 145.348 12.9389 161.878 26.2077C183.913 43.8957 198.02 71.0562 198.02 101.51Z" fill="#F7F7F7"/>
</g>
</g>
</mask>
<g mask="url(#mask0_253_42)">
<g id="Group 72">
<path id="Vector_3" d="M126.924 161.19L75.6129 135.718L52.3706 241.343H110.978L128.09 161.816L126.924 161.212V161.19ZM86.7129 81.5508L83.0376 98.6594L139.945 98.5923H141.684L145.34 81.5732H86.7327L86.7129 81.5508Z" fill="black"/>
<path id="Vector_4" d="M134.544 19.3936C142.99 19.8141 148.886 22.5052 153.13 27.509C157.353 32.5338 157.855 39.1354 157.583 45.2956C156.077 56.1231 152.252 62.5986 143.576 69.2423C133.833 75.9491 126.035 78.493 112.801 77.2736C104.376 76.4957 97.3723 72.8164 93.86 68.5065C90.3686 64.1965 88.6962 57.742 89.4697 50.9091C90.2433 44.0762 93.7764 35.8136 102.369 28.7284C110.941 21.6011 124.822 18.91 134.544 19.3936Z" fill="black"/>
<path id="Vector_5" d="M133.985 135.351L133.917 135.619L129.528 153.47L68.9979 126.771L36.1873 112.316L29.1274 109.188L70.7855 119.577L134.031 135.351H134.008H133.985Z" fill="#C52228"/>
<path id="Vector_6" d="M141.203 105.926L141.158 106.239L135.863 127.688L135.795 127.978L72.4144 112.852L43.8579 106.038H49.0171L74.0888 105.993L141.181 105.926H141.203Z" fill="#C52228"/>
</g>
</g>
</g>
</g>
</g>
<g id="Group 64">
<g id="b">
<g id="c">
<g id="Group_2">
<path id="Vector_7" d="M318.143 96.7871C280.314 96.7871 244.779 106.49 213.899 123.471C212.588 129.896 210.752 136.059 208.261 142.025C218.03 135.731 228.323 130.224 239.01 125.766C264.054 115.145 290.673 109.768 318.143 109.768C345.614 109.768 372.232 115.145 397.277 125.766C409.34 130.814 420.945 137.173 431.828 144.516C442.646 151.794 452.743 160.12 461.921 169.365C471.166 178.543 479.492 188.64 486.77 199.458C494.112 210.341 500.472 221.946 505.52 234.009C516.141 259.054 521.517 285.672 521.517 313.143C521.517 340.613 516.141 367.232 505.52 392.276C500.472 404.34 494.112 415.944 486.77 426.828C479.492 437.646 471.166 447.742 461.921 456.921C452.743 466.165 442.646 474.492 431.828 481.769C420.945 489.112 409.34 495.472 397.277 500.52C372.232 511.141 345.614 516.517 318.143 516.517C290.673 516.517 264.054 511.141 239.01 500.52C226.946 495.472 215.342 489.112 204.458 481.769C193.64 474.492 183.544 466.165 174.365 456.921C165.121 447.742 156.794 437.646 149.517 426.828C142.174 415.944 135.814 404.34 130.766 392.276C120.145 367.232 114.769 340.613 114.769 313.143C114.769 285.672 120.145 259.054 130.766 234.009C135.224 223.322 140.732 213.029 147.026 203.26C141.059 205.752 134.897 207.587 128.537 208.899H128.471C111.491 239.779 101.788 275.313 101.788 313.143C101.788 432.663 198.623 529.498 318.143 529.498C437.663 529.498 534.499 432.663 534.499 313.143C534.499 193.623 437.663 96.7871 318.143 96.7871Z" fill="black"/>
<path id="Vector_8" d="M408.815 468.984C462.38 437.711 498.439 379.623 498.439 313.143C498.439 281.804 490.44 252.301 476.345 226.666C477.131 232.37 477.59 238.533 477.59 245.155C477.59 263.446 474.116 284.033 463.888 309.733L408.815 468.984Z" fill="black"/>
<path id="Vector_9" d="M437.532 180.051C438.384 180.051 439.105 180.051 439.892 180.182C407.832 150.81 365.086 132.846 318.143 132.846C255.138 132.846 199.737 165.168 167.481 214.078C171.742 214.209 175.742 214.34 179.085 214.34C197.967 214.34 227.142 212.045 227.142 212.045C236.846 211.455 238.026 225.748 228.323 226.863C228.323 226.863 218.554 228.043 207.67 228.633L273.298 423.877L312.767 305.537L284.706 228.633C275.003 228.043 265.824 226.863 265.824 226.863C256.055 226.338 257.236 211.455 266.939 212.045C266.939 212.045 296.704 214.34 314.406 214.34C333.288 214.34 362.463 212.045 362.463 212.045C372.166 211.455 373.346 225.748 363.643 226.863C363.643 226.863 353.874 228.043 342.991 228.633L408.16 422.435L426.78 363.494C435.041 337.728 439.827 319.502 439.827 304.029C439.827 281.738 431.828 266.331 425.009 254.333C415.831 239.45 407.308 226.863 407.308 212.045C407.308 195.458 419.83 180.051 437.532 180.051Z" fill="black"/>
<path id="Vector_10" d="M267.201 486.096C283.395 490.817 300.441 493.439 318.143 493.439C339.123 493.439 359.25 489.833 378.001 483.212C377.542 482.425 377.083 481.638 376.756 480.72L321.29 328.878L267.201 486.096Z" fill="black"/>
<path id="Vector_11" d="M137.847 313.143C137.847 384.474 179.348 446.169 239.468 475.409L153.451 239.778C143.485 262.201 137.847 286.983 137.847 313.143Z" fill="black"/>
</g>
</g>
</g>
</g>
</g>
</g>
</svg>
